<?xml version="1.0" encoding="utf-8"?>
<!-- Generator: Adobe Illustrator 25.2.0, SVG Export Plug-In . SVG Version: 6.00 Build 0)  -->
<svg version="1.1" id="Layer_1" xmlns="http://www.w3.org/2000/svg" xmlns:xlink="http://www.w3.org/1999/xlink" x="0px" y="0px"
	 viewBox="0 0 284 177" style="enable-background:new 0 0 284 177;" xml:space="preserve">
<style type="text/css">
	.st0{fill:none;stroke:#2D8CEB;stroke-width:2;stroke-miterlimit:10;}
	.st1{fill:none;stroke:#EB2D54;stroke-width:5;stroke-miterlimit:10;}
	.st2{fill-rule:evenodd;clip-rule:evenodd;fill:#EB2D54;}
	.st3{fill-rule:evenodd;clip-rule:evenodd;fill:#2D8CEB;}
</style>
<g id="ar_vr_icon" transform="translate(2.5)">
	<path id="Path_1" class="st0" d="M27.9,74.2l0.1-17.8l2.6-1.4L51,66.8l0.1,23.4l-2.7,1.7L33.1,83L33,80.3l12.7,7.3l0.1-17.8
		l-15.2-9l-0.1,14.9L27.9,74.2z"/>
	<path id="Path_2" class="st0" d="M33,62.3l0,6.1v2.8l7.7-4.4l2.6,1.5l-12.9,7.4"/>
	<line id="Line_1" class="st0" x1="38.2" y1="65.3" x2="33" y2="68.4"/>
	<path id="Path_3" class="st0" d="M33,80.3l12.8-7.5l0,3l-7.7,4.4l7.7,4.4"/>
	<line id="Line_2" class="st0" x1="45.8" y1="78.8" x2="40.8" y2="81.6"/>
	<path id="Path_4" class="st0" d="M28.1,56.5l20.4,11.9v23.5"/>
	<line id="Line_3" class="st0" x1="51" y1="66.8" x2="48.4" y2="68.4"/>
	<path id="Path_5" class="st0" d="M48.4,38.7l-15.3,9.1l0.1,3l20.4,11.6l20.5-11.8l0-2.9l-15.6-8.9l-2.4,1.4l12.9,7.5l-15.4,8.8
		l-15.5-8.6L51,40.1L48.4,38.7z"/>
	<path id="Path_6" class="st0" d="M40.7,49.1L46,46l2.4-1.4l0.1,8.9l2.6,1.5L51,40.1"/>
	<line id="Line_4" class="st0" x1="45.9" y1="52.1" x2="46" y2="46"/>
	<path id="Path_7" class="st0" d="M56.2,40l0,14.8l2.6-1.5l-0.1-8.9l7.9,4.5"/>
	<line id="Line_5" class="st0" x1="61.4" y1="51.8" x2="61.3" y2="46.1"/>
	<path id="Path_8" class="st0" d="M33.2,47.8l20.6,11.5l20.4-11.7"/>
	<line id="Line_6" class="st0" x1="53.7" y1="62.3" x2="53.8" y2="59.3"/>
	<path id="Path_9" class="st0" d="M79.2,74.2l-0.1-17.8L76.5,55L56.2,66.8L56,90.5l2.5,1.5L74.1,83l0.1-2.8l-13,7.3l0.2-17.7l15.2-9
		l0.1,14.9L79.2,74.2z"/>
	<path id="Path_10" class="st0" d="M74.1,62.3l0,6.1l0,2.8l-7.7-4.4l-2.6,1.5l12.9,7.4"/>
	<line id="Line_7" class="st0" x1="69" y1="65.3" x2="74.2" y2="68.4"/>
	<path id="Path_11" class="st0" d="M74.2,80.3l-12.8-7.5l0,3l7.7,4.4l-7.9,4.5"/>
	<line id="Line_8" class="st0" x1="61.3" y1="78.8" x2="66.3" y2="81.6"/>
	<path id="Path_12" class="st0" d="M79.1,56.5L58.6,68.3L58.5,92"/>
	<line id="Line_9" class="st0" x1="56.1" y1="66.9" x2="58.7" y2="68.4"/>
	<path id="Path_13" class="st1" d="M27.3,105.1h-9.8c-2,0-3.5-1.6-3.5-3.5V90.8"/>
	<path id="Path_14" class="st1" d="M93.2,90.8v10.7c0,1.9-1.6,3.5-3.5,3.5H79.2"/>
	<path id="Path_15" class="st1" d="M79.2,25.9h10.4c2,0,3.5,1.6,3.6,3.6v9.9"/>
	<path id="Path_16" class="st1" d="M14,39.4v-9.9c0-2,1.6-3.5,3.5-3.5h9.8"/>
	<path id="Female_VR_Icon" class="st2" d="M217.6,55.1l-3.6,1.1v0.4c0.4,0.3,0.7,0.7,0.9,1.1c1.6-0.4,3.3-0.4,4.9-0.2l0.4,0.7h0.2
		v0.4h0.2c0.1,1,0.1,2.1,0.2,3.1c0.4,1.6,0.5,3.3,0.2,4.9l-0.7,0.4v0.2H220v0.2l-3.6,0.4l0.2,1.6l3.6-0.2v0.2h0.2
		c0,2.5,0.3,5,0.9,7.4l0.2,2.7h0.2L222,82h0.2v0.9h0.2v0.9h0.2v0.9h0.2v0.7h0.2v0.9h0.2l0.2,1.6h0.2v0.7h0.2v0.4h0.2v0.7h0.2
		l0.2,1.3h0.2v0.4h0.2v0.7h0.2c0.1,0.4,0.1,0.7,0.2,1.1h0.2l0.2,0.9h0.2v0.4h0.2v0.7h0.2l0.2,0.9h0.2l0.2,0.9h0.2l0.2,0.9l0.4,0.2
		v0.7h0.2c0.2,0.3,0.1,0.4,0.2,0.9h-0.4c-0.5,0.8-0.7,0.6-1.3,1.1l-0.4,0.7h-0.4l-0.2,0.4h-0.5l-0.4,0.7l-0.9,0.2l-0.2,0.4l-0.7,0.2
		v0.2l-1.4,0.4l-0.2,0.4l-1.3,0.4v0.2h-0.4v0.2l-1.3,0.4v0.2h-0.7v0.2l-0.9,0.2v0.2h-0.7v0.2h-0.4v0.2h-0.7v0.2h-0.4v0.2H214v0.2
		h-0.7v0.2h-0.7v0.2h-0.7v0.2H211v0.2h-0.7v0.2h-0.9v0.2l-2.5,0.4v0.2h-1.1c-2,0.6-4.1,1-6.3,1.1c0.3,2.1,0.8,4.2,1.6,6.3v0.9h0.2
		v0.7h0.2v0.7h0.2v0.7h0.2v0.7l1.6,1.3l1.8,2h0.4l0.7,0.9h0.4l0.4,0.7h0.4c0.1,0.1,0.1,0.3,0.2,0.4h0.4l0.4,0.7l0.9,0.2l0.2,0.4
		l0.9,0.2l0.2,0.4h0.4v0.2h0.4v0.2h0.4v0.2h0.4v0.2h0.4v0.2h0.4v0.2h0.4v0.2l1.3,0.4v0.2h0.7v0.2l0.9,0.2v0.2h0.7v0.2h0.4v0.2l2,0.4
		v0.2h0.4v0.2h0.9v0.2h0.4v0.2h0.9v0.2h0.7v0.2h0.7v0.2h0.7v0.2h0.7v0.2l2.2,0.4v0.2h0.9v0.2h0.7v0.2h0.7v0.2h0.7v0.2h0.7v0.2h0.9
		v0.2h0.7v0.2h0.7v0.2h0.7v0.2h0.7v0.2h0.4v0.2l1.3,0.2v0.2h0.4v0.2h0.7v0.2h0.4v0.2h0.7v0.2l1.3,0.4v0.2h0.4v0.2l1.3,0.4l0.2,0.4
		l0.9,0.2l0.2,0.4l0.9,0.2c0.1,0.1,0.1,0.3,0.2,0.4l0.7,0.2l0.4,0.7h0.4l0.9,1.1h0.4c0.3,0.4,0.6,0.7,0.9,1.1l0.4,0.2v0.4l1.3,1.1
		v0.4l0.4,0.2v0.4l0.4,0.2v0.4l0.4,0.2v0.4l0.4,0.2l0.4,1.3l0.4,0.2v0.7h0.2v0.4h0.2l0.2,0.9h0.2v0.7h0.2v0.4h0.2v0.7h0.2v0.7h0.2
		v0.7h0.2l0.4,2.7c0.9,2.8,1.3,5.8,1.3,8.7H106.8c0-2.3,0.3-4.5,0.9-6.7l0.2-2h0.2l0.4-2.7h0.2l0.2-1.3h0.2v-0.4h0.2l0.2-1.3h0.2
		l0.2-0.9h0.2v-0.7l0.4-0.2v-0.4h0.2v-0.4h0.2v-0.4h0.2v-0.4h0.2V149l0.4-0.2v-0.5l0.4-0.2v-0.4l0.7-0.4v-0.4l0.9-0.7v-0.4l0.7-0.4
		l1.6-1.8h0.4l0.9-1.1h0.4l0.2-0.4h0.4l0.4-0.7l0.9-0.2l0.2-0.4l0.9-0.2l0.2-0.4l0.9-0.2v-0.2l1.3-0.4v-0.2h0.7v-0.2l0.9-0.2V138
		h0.7v-0.2h0.4v-0.2h0.7v-0.2h0.4v-0.2h0.7v-0.2h0.7v-0.2h0.7v-0.2h0.7v-0.2h0.7c4.4-1.7,9.4-2.9,13.7-4.7l1.3-0.2V131l0.9-0.2v-0.2
		h0.7v-0.2l1.3-0.4v-0.2h0.4v-0.2h0.4v-0.2h0.4V129h0.4v-0.2h0.4v-0.2h0.4v-0.2h0.4l0.2-0.4l0.9-0.2v-0.2l0.7-0.2l0.2-0.4l0.9-0.2
		l0.2-0.4l0.7-0.2l0.4-0.7h0.4l0.7-0.9h0.4l2.5-2.7l1.1-0.9l0.9-2.7v-0.9c0.8-1.9,1.2-4,1.3-6c-8.7-1.3-16.5-3.7-22.6-7.6l-0.9-0.2
		l-0.2-0.4h-0.4v-0.2l-0.7-0.2l-0.2-0.4h-0.4l-0.2-0.4h-0.4l-0.4-0.7h-0.4l-0.7-0.9l-0.7-0.2V99l2-3.4V95h0.2v-0.4h0.2l0.4-1.3h0.2
		v-0.7h0.2v-0.4h0.2v-0.7h0.2v-0.4h0.2c0.1-0.4,0.1-0.9,0.2-1.3h0.2v-0.7h0.2v-0.7h0.2v-0.7h0.2v-0.7h0.2c0.7-2.8,1.3-5.7,2-8.5V77
		h0.2v-1.6h0.2v-1.6h0.2v-2h0.2c0.2-0.8-0.2-1.7,0.2-2.2v-0.2h1.3c0.4,0.3,1.3,0.2,2,0.2l0.2-1.6l-4-0.7c-0.2-0.4-0.6-0.8-0.9-1.1
		c0-2.7,0.3-5.4,0.9-8.1l0.7-0.4v-0.2h0.4v-0.2c1.3-0.5,3.7,0.7,4.5,0.2c0.4-0.4,0.6-0.8,1.1-1.1c-0.3-0.3,0-0.1-0.4-0.2V56
		l-1.6-0.2v-0.2h-0.9v-0.2h-0.9v-0.2h-0.9v-0.2c-0.3-0.3-0.1,0-0.2-0.4l1.6-10.1h0.2c0.1-1,0.3-1.9,0.4-2.9h0.2v-0.9h0.2l0.2-1.6
		h0.2l0.2-1.6h0.2v-0.7h0.2v-0.7h0.2v-0.7h0.2l0.2-1.3h0.2v-0.5h0.2c0.1-0.4,0.1-0.9,0.2-1.3h0.2l0.2-0.9h0.2v-0.5h0.2v-0.7h0.2
		l0.2-0.9h0.2l0.2-0.9l0.4-0.2l0.4-1.3l0.4-0.2v-0.4l0.7-0.4v-0.4l0.7-0.4v-0.4l0.9-0.7l0.9-1.1h0.4l0.2-0.4h0.4l0.2-0.4l0.9-0.2
		v-0.2h0.5V21h0.7v-0.2h1.3v-0.2l2.5,0.2c0.9-1.5,2.1-2.7,3.6-3.6l0.4-0.7h0.5l0.2-0.4l0.9-0.2v-0.2h0.4v-0.2h0.4v-0.2l1.3-0.4v-0.2
		h0.7v-0.2h0.7v-0.2h0.7v-0.2h0.9v-0.2h0.9v-0.2h1.1v-0.2h1.6V13h3.8c3.3-0.1,6.7,0.4,9.9,1.3l3.1,0.7v0.2h0.4v0.2l1.3,0.2v0.2h0.4
		v0.2h0.7v0.2l1.3,0.4V17h0.4v0.2l1.3,0.4l0.2,0.4l0.9,0.2l0.2,0.4h0.4l0.4,0.7h0.4l0.7,0.9h0.4l3.8,4v0.4l0.7,0.4v0.4h0.2l0.2,0.7
		l0.7,0.4l0.4,1.3l0.4,0.2c0.1,0.3,0.1,0.6,0.2,0.9h0.2v0.4h0.2l0.4,1.3h0.2v0.7h0.2c0.1,0.3,0.1,0.6,0.2,0.9h0.2l2,6l0.2,2h0.2v0.9
		h0.2v1.1h0.2v1.1h0.2L217.6,55.1z M173.8,37l-4.9,2l-0.2,0.4l-0.9,0.2l-0.2,0.4h-0.4l-0.2,0.4h-0.4l-0.4,0.7h-0.4l-0.7,0.9h-0.4
		l-1.4,1.6l-0.4,0.2v0.4l-0.9,0.7v0.5l-0.7,0.5v0.4l-0.4,0.2v0.4l-0.4,0.2c-0.1,0.3-0.1,0.6-0.2,0.9h-0.2v0.4
		c-0.7,1.1-1.2,2.3-1.3,3.6h0.2V52l1.6-0.2v-0.2h0.9v-0.2h0.9v-0.2h1.1v-0.2h1.1v-0.2h1.3v-0.2h1.6v-0.2h1.6V50h2v-0.2h2.2v-0.2h4
		c3.3-0.5,6.7-0.5,10.1,0h3.8v0.2h2.2V50h2v0.2h1.8v0.2h1.3l7.9,1.8V52c-0.6-0.4-0.9-1.4-1.3-2l-0.4-0.2v-0.4l-0.4-0.2l-0.2-0.7
		l-1.1-0.9v-0.4l-0.7-0.4l-1.6-1.8h-0.4l-0.9-1.1h-0.4l-0.2-0.4h-0.4l-0.4-0.7h-0.4l-0.2-0.4l-0.9-0.2l-0.2-0.5l-0.9-0.2V41h-0.4
		v-0.2l-1.4-0.5v-0.2h-0.7C187.1,37.8,181.4,37,173.8,37z M180.6,53.3c-0.4,0.4-1.7,0.2-2.5,0.2l-5.8,0.2V54h-2v0.2h-1.8v0.2h-1.3
		v0.2h-1.6v0.2l-2.2,0.2c-1.7,0.5-3.6,1-5.2,1.6l-1.3,0.2v0.2h-0.4v0.2h-0.7v0.2c-1.1,0.6-2.6,0.9-2.9,2.2c-0.8,0.8-0.3,2.7-0.7,4
		h-0.2l-0.2,3.1h-0.2l-0.2,4.9h0.2V73h0.2v0.4h0.2v0.7l0.4,0.2v0.4l0.4,0.2v0.4l1.1,0.9l0.2,0.4h0.4l0.4,0.7c4.6,3,13.2,1,17.9-0.4
		h1.3v-0.2h1.3v-0.2h1.6v-0.2h2.2v-0.2l7.2,0.2v0.2h1.8v0.2h1.1v0.2h1.3v0.2l4,0.7c2.7,0.8,7.3,1.7,10.5,0.7h0.9v-0.2h0.7v-0.2
		l1.3-0.4v-0.2h0.4l0.4-0.7h0.4l0.7-0.9l0.7-0.4V75l0.4-0.2l0.2-0.7h0.2c0.7-1.9,0.9-3.9,0.7-5.8c-0.4-2.9-0.9-5.8-1.3-8.7
		c-0.5-0.3-0.7-0.8-1.1-1.1h-0.5l-0.2-0.4H209v-0.2l-0.9-0.2v-0.2h-0.7v-0.2H207v-0.2h-0.7v-0.2h-0.7v-0.2H205v-0.2h-0.9V56
		l-2.5-0.4v-0.2h-1.1v-0.2h-1.1v-0.2h-1.1v-0.2h-1.3v-0.2h-1.6v-0.2h-1.8V54h-2v-0.2h-2.9v-0.2L180.6,53.3z M203.7,86.5
		c-2.9-0.1-5.8-0.5-8.5-1.3H194v-0.2h-0.9c-1.1-0.4-2.5-0.8-3.6-1.1l-5.2-0.9h-4v0.2h-2v0.2H177v0.2h-1.3v0.2h-0.9V84h-1.1v0.2h-0.9
		v0.2h-1.1c-3.8,1-7.7,1.5-11.7,1.3V86c0.5,0.6,0,1.8,0.2,2.7h0.2v1.1h0.2l0.4,2h0.2l0.4,1.3h0.2l0.2,0.9l0.4,0.2v0.4h0.2
		c0.1,0.2,0.1,0.4,0.2,0.7l0.4,0.2v0.5l1.1,0.9v0.4l1.8,1.6l0.9,1.1h0.4l0.9,1.1h0.4l0.7,0.9h0.4l0.7,0.9l0.7,0.2l0.2,0.4h0.4
		l0.4,0.7h0.4l0.4,0.7h0.4c0.1,0.2,0.1,0.3,0.2,0.4h0.4l0.4,0.7h0.4l0.2,0.4l0.9,0.2v0.2l2.5,0.2c2.2,0.4,4.5,0.4,6.7-0.2h0.9v-0.2
		l1.1-0.2l0.4-0.7h0.4l0.2-0.4h0.4c0.1-0.1,0.1-0.3,0.2-0.4h0.4l0.4-0.7h0.5l0.4-0.7h0.4l0.4-0.7h0.4l0.4-0.7h0.4l0.7-0.9h0.4
		l1.1-1.3h0.4c0.6-0.7,1.2-1.3,1.8-2l0.9-0.7V97l0.9-0.7l0.2-0.7l0.4-0.2C202.5,92.8,203.6,89.7,203.7,86.5L203.7,86.5z
		 M197.4,122.5c-0.1-1.9-0.4-3.8-0.9-5.6v-1.3c-0.5-2.2-0.7-4.5-0.7-6.7h-0.2l-1.1,1.6l-0.7,0.4v0.4l-0.7,0.4l-0.9,1.1h-0.4
		l-0.4,0.7l-0.9,0.2l-0.2,0.4h-0.4v0.2l-1.3,0.2v0.2h-0.9c-4.1,1-8.3,1-12.3-0.2h-0.9v-0.2h-0.4v-0.2l-1.3-0.4l-0.4-0.7h-0.4
		l-1.1-1.3c-0.7-0.7-2-1.6-2.2-2.7H168v1.1c-0.6,0.7,0.1,2.1-0.2,3.1c-0.5,3-1,6-1.6,9c0.3,0.1,0.3,0.4,0.4,0.4h0.5l0.2,0.4h0.4
		c0.1,0.1,0.1,0.3,0.2,0.4l0.9,0.2v0.2l1.3,0.4v0.2h0.7v0.2h0.4v0.2h0.7v0.2h0.7v0.2h0.7v0.2h0.7v0.2l3.6,0.4v0.2l6.1,0.2v-0.2h2
		l2.9-0.4v-0.2h0.9v-0.2h0.9v-0.2h0.7v-0.2h0.7v-0.2h0.7V125l0.9-0.2v-0.2l1.1-0.2v-0.2h0.4c0.1-0.1,0.1-0.3,0.2-0.4h0.5v-0.2h0.4
		l0.2-0.4h0.4v-0.2L197.4,122.5z"/>
	<path id="Path_17" class="st3" d="M180.6,56.4c-0.7,0.2-1.4,0.3-2.2,0.2l-5.1,0.2v0.2h-1.8v0.2H170v0.2h-1.2v0.2h-1.4v0.2l-2,0.2
		c-1.5,0.4-3.2,0.7-4.5,1.2l-1.2,0.2v0.2h-0.4v0.2h-0.6v0.2c-1,0.4-2.2,0.7-2.6,1.7c-0.7,0.6-0.3,2.1-0.6,3.1h-0.2
		c-0.1,0.8-0.1,1.6-0.2,2.4H155c-0.1,1.3-0.1,2.5-0.2,3.8h0.2v0.9h0.2v0.3h0.2v0.5l0.4,0.2v0.3l0.4,0.2v0.3l1,0.7l0.2,0.3h0.4
		l0.4,0.5c4,2.3,11.6,0.8,15.8-0.3h1.2v-0.2h1.2v-0.2h1.4V74h2v-0.2L186,74v0.2h1.6v0.2h1v0.2h1.2v0.2l3.6,0.5
		c2.4,0.6,6.5,1.3,9.3,0.5h0.8v-0.2h0.6v-0.2l1.2-0.3v-0.2h0.4l0.4-0.5h0.4l0.6-0.7l0.6-0.3V73l0.4-0.2c0.1-0.2,0.1-0.3,0.2-0.5h0.2
		c0.6-1.4,0.8-2.9,0.6-4.4c-0.4-2.2-0.8-4.4-1.2-6.7c-0.5-0.2-0.6-0.6-1-0.9h-0.4l-0.2-0.3h-0.4v-0.2l-0.8-0.2v-0.2h-0.6v-0.2h-0.4
		v-0.2h-0.6V59h-0.6v-0.2h-0.6v-0.2h-0.8v-0.2l-2.2-0.3v-0.2h-1v-0.2h-1v-0.2h-1v-0.2H195v-0.2h-1.4v-0.2h-1.6v-0.2h-1.8v-0.2h-2.6
		v-0.2L180.6,56.4z"/>
</g>
</svg>
