<svg id="Layer_1" data-name="Layer 1" xmlns="http://www.w3.org/2000/svg" viewBox="0 0 333 333"><defs><style>.cls-1{fill:#f0f;}.cls-2{fill:#005cff;}.cls-3{fill:#00ffc2;}</style></defs><polygon class="cls-1" points="184.59 135.97 184.21 135.97 110.55 11.06 219.49 9.03 228.91 24.43 137.69 26.25 146.62 41 165.61 72.39 184.6 103.79 193.82 119.03 211.76 119.03 248.48 119.03 284.59 119.02 302.68 119.02 256.79 39.98 273.78 40.15 329.46 134.96 184.59 135.97"/><polygon class="cls-2" points="110.55 11.06 184.21 135.97 184.59 135.97 175.83 150.85 175.52 150.85 101.87 27.04 110.55 11.06"/><polygon class="cls-3" points="184.01 40.5 146.62 41 137.69 26.25 228.91 24.43 184.6 103.79 174.99 87.86 201.39 40.27 184.08 40.5 184.01 40.5"/><polygon class="cls-1" points="56.71 41.63 74.44 41.74 148.19 166.21 129.63 166.16 56.71 41.63"/><polygon class="cls-2" points="85.44 214.65 102.95 182.4 111.45 166.74 102.39 151.26 83.85 119.57 65.61 88.41 56.48 72.79 11.43 152.31 2.99 137.56 56.71 41.63 129.63 166.16 60.3 293.15 3.54 200.14 12.08 184.24 59.71 262.05 67.94 246.89 85.44 214.65"/><polygon class="cls-2" points="184.08 40.5 201.39 40.27 174.99 87.86 184.6 103.79 165.61 72.39 184.01 40.5 184.08 40.5"/><polygon class="cls-2" points="211.76 118.76 256.63 39.89 256.79 39.98 302.68 119.02 284.59 119.02 284.59 118.95 266.04 87.37 256.42 71.01 230.02 118.48 211.76 118.76"/><polygon class="cls-3" points="56.48 72.79 65.61 88.41 65.55 88.45 47.66 120.4 38.4 136.96 92.7 135.78 102.16 151.4 11.43 152.5 11.43 152.31 56.48 72.79"/><polygon class="cls-3" points="256.42 71.01 266.04 87.37 265.75 87.54 248.48 118.39 248.48 119.03 211.76 119.03 211.76 118.76 230.02 118.48 256.42 71.01"/><polygon class="cls-1" points="83.85 119.57 102.39 151.26 102.16 151.4 92.7 135.78 38.4 136.96 47.66 120.4 47.95 120.56 83.29 119.89 83.85 119.57"/><polygon class="cls-3" points="175.83 150.85 184.59 135.97 329.46 134.96 320.41 150.21 175.83 150.85"/><polygon class="cls-3" points="129.63 166.16 148.19 166.21 148.38 166.53 78.48 292.56 60.3 293.15 129.63 166.16"/><polygon class="cls-1" points="48.62 214.87 67.94 246.89 59.71 262.05 12.08 184.24 102.95 182.4 94.06 198.74 39.65 199.99 48.59 214.81 48.62 214.87"/><polygon class="cls-3" points="102.95 182.4 85.44 214.65 48.62 214.87 48.59 214.81 39.65 199.99 94.06 198.74 102.95 182.4"/><polygon class="cls-1" points="175.84 182.61 319.13 180.4 330.01 196.91 185.61 198.39 175.84 182.61 175.84 182.61"/><polygon class="cls-2" points="175.47 182.61 175.84 182.61 175.84 182.61 185.61 198.39 113.76 323.97 104.73 308.18 175.47 182.61"/><polygon class="cls-3" points="167.45 261.43 149.16 293.24 140.56 308.18 231.79 307.99 222.72 323.59 113.76 323.97 185.61 198.39 330.01 196.91 276.31 291.28 259.33 291.82 303.59 213.44 284.52 213.57 249.4 213.81 230.83 213.93 212.56 214.06 194.63 214.18 185.75 229.62 167.45 261.43"/><polygon class="cls-2" points="212.56 214.06 230.83 213.93 258.27 260.81 267.49 244.22 284.52 213.57 303.59 213.44 259.33 291.82 259.17 291.92 212.56 214.06"/><polygon class="cls-1" points="230.83 213.93 249.4 213.81 267.23 244.08 267.49 244.22 258.27 260.81 230.83 213.93"/><polygon class="cls-2" points="167.45 261.43 185.75 229.62 176.49 245.76 203.93 292.76 186.62 292.91 186.56 292.91 167.45 261.43"/><polygon class="cls-1" points="186.56 292.91 186.62 292.91 203.93 292.76 176.49 245.76 185.75 229.62 231.79 307.99 140.56 308.18 149.16 293.24 186.56 292.91"/></svg>