<?xml version="1.0" encoding="utf-8"?>
<!-- Generator: Adobe Illustrator 24.1.0, SVG Export Plug-In . SVG Version: 6.00 Build 0)  -->
<svg version="1.1" id="Layer_1" xmlns="http://www.w3.org/2000/svg" xmlns:xlink="http://www.w3.org/1999/xlink" x="0px" y="0px"
	 viewBox="0 0 220 190" style="enable-background:new 0 0 220 190;" xml:space="preserve">
<style type="text/css">
	.st0{fill:#FFFFFF;}
</style>
<g>
	<path class="st0" d="M157.3,107.3c0.7,0,1.2,0.8,0.8,1.4l-46.8,80.8c-0.2,0.3-0.5,0.5-0.8,0.5H81.9c-0.7,0-1.2-0.8-0.8-1.4
		l46.8-80.8c0.2-0.3,0.5-0.5,0.8-0.5H157.3z M129.5,84.1c-0.3,0-0.6-0.2-0.8-0.5L81.1,1.4C80.8,0.8,81.2,0,81.9,0h28.6
		c0.3,0,0.6,0.2,0.8,0.5l47.5,82.2c0.4,0.6-0.1,1.4-0.8,1.4H129.5z"/>
	<path class="st0" d="M135.1,1.4c-0.4-0.6,0.1-1.4,0.8-1.4h28.6c0.3,0,0.6,0.2,0.8,0.5l54.5,94.1c0.2,0.3,0.2,0.7,0,0.9l-54.5,94.1
		c-0.2,0.3-0.5,0.5-0.8,0.5h-28.6c-0.7,0-1.2-0.8-0.8-1.4L189.3,95L135.1,1.4z M111.9,94.5c0.2,0.3,0.2,0.7,0,0.9l-54.7,94.1
		c-0.4,0.6-1.3,0.6-1.6,0L0.1,95.5c-0.2-0.3-0.2-0.7,0-0.9L54.9,0.5c0.4-0.6,1.3-0.6,1.6,0L111.9,94.5z"/>
</g>
</svg>
